<?xml version="1.0" encoding="UTF-8"?>
<svg width="500px" height="106px" viewBox="0 0 500 106" version="1.1" xmlns="http://www.w3.org/2000/svg" xmlns:xlink="http://www.w3.org/1999/xlink">
    <title>shpock-logotype</title>
    <g id="shpock-logotype" stroke="none" stroke-width="1" fill="none" fill-rule="evenodd">
        <path d="M33.972,36.551 C33.972,41.942 38.896,44.286 52.491,45.927 C70.775,48.154 83.317,53.663 83.317,69.368 C83.317,85.308 68.783,95.388 49.444,95.388 C32.097,95.388 19.205,89.645 11,78.862 L27.644,66.087 C31.864,72.181 39.482,76.636 48.975,76.636 C57.297,76.636 62.923,73.706 62.923,68.9 C62.923,62.922 57.297,61.281 42.529,59.523 C25.183,57.413 14.517,50.733 14.517,35.613 C14.517,21.9 27.761,11 47.334,11 C63.157,11 75.464,16.743 83.785,28.346 L67.376,41.006 C61.751,33.504 56.359,29.519 47.217,29.519 C39.364,29.519 33.973,32.684 33.973,36.552 L33.972,36.551 Z M140.63,12.289 L140.63,45.809 L110.976,45.809 L110.976,12.289 L90.582,12.289 L90.582,94.333 L110.976,94.333 L110.976,60.578 L140.63,60.578 L140.63,94.333 L161.023,94.333 L161.023,12.289 L140.63,12.289 Z M206.968,12.289 L171.337,12.289 L171.337,94.333 L191.731,94.333 L191.731,71.713 L206.147,71.713 C229.94,71.713 242.715,60.109 242.715,42.06 C242.715,25.065 230.291,12.29 206.968,12.29 L206.968,12.289 Z M204.975,56.944 L191.731,56.944 L191.731,30.104 L205.209,30.104 C215.406,30.104 221.384,34.324 221.384,43.114 C221.384,52.139 215.406,56.944 204.974,56.944 L204.975,56.944 Z M288.894,95.506 C315.499,95.506 331.322,76.049 331.322,53.194 C331.322,30.339 315.499,11.117 288.894,11.117 C262.288,11.117 246.464,30.339 246.464,53.194 C246.464,76.049 262.288,95.506 288.894,95.506 Z M288.894,76.987 C274.361,76.987 267.328,66.087 267.328,53.194 C267.328,40.301 274.361,29.636 288.894,29.636 C303.427,29.636 310.46,40.301 310.46,53.194 C310.46,66.087 303.427,76.987 288.894,76.987 Z M377.266,95.388 C393.44,95.388 404.575,89.762 412.896,77.925 L397.192,66.439 C392.972,72.299 387.464,76.869 377.267,76.869 C363.437,76.869 355.817,66.673 355.817,53.194 C355.817,39.715 363.437,29.518 377.267,29.518 C386.526,29.518 393.09,34.558 397.074,40.77 L413.014,28.464 C405.396,16.977 392.972,11 377.267,11 C350.895,11 334.955,30.222 334.955,53.194 C334.955,76.166 350.895,95.388 377.267,95.388 L377.266,95.388 Z M418.756,94.333 L439.15,94.333 L439.15,63.626 C453.332,64.329 466.577,76.049 466.928,94.333 L489.784,94.333 L489.784,94.216 C489.784,74.877 475.133,57.648 454.387,53.311 C475.133,48.975 489.784,31.745 489.784,12.289 L466.928,12.289 C466.577,30.573 453.332,42.294 439.15,43.114 L439.15,12.289 L418.757,12.289 L418.757,94.333 L418.756,94.333 Z" id="Shape" fill="#0F1D0E" fill-rule="nonzero"></path>
    </g>
</svg>